<svg id="Layer_1" data-name="Layer 1" xmlns="http://www.w3.org/2000/svg" viewBox="0 0 300 300"><defs><style>.cls-1{fill:#1f2463;}.cls-2{fill:#3f4fff;}</style></defs><path class="cls-1" d="M179.49,40.07l30.76,1a1.8,1.8,0,0,1,1.58,1.06l18.32,40.24a1.8,1.8,0,0,0,1.58,1.06l.85,0a1.79,1.79,0,0,0,1.64-1l20.74-39a1.8,1.8,0,0,1,1.64-.95l31.93,1a1.8,1.8,0,0,1,1.74,1.86l-3.16,97.87a1.8,1.8,0,0,1-1.86,1.74l-20.37-.66a1.81,1.81,0,0,1-1.74-1.86l1.75-54a1.8,1.8,0,0,0-1.74-1.85h0a1.79,1.79,0,0,0-1.66,1l-18.3,36.05a1.81,1.81,0,0,1-1.66,1L221.31,124a1.81,1.81,0,0,1-1.59-1.09L203.79,85.76a1.79,1.79,0,0,0-1.6-1.09H202a1.8,1.8,0,0,0-1.85,1.74l-1.75,54a1.8,1.8,0,0,1-1.86,1.74l-20.37-.66a1.8,1.8,0,0,1-1.74-1.86l3.17-97.86A1.79,1.79,0,0,1,179.49,40.07Z"/><path class="cls-1" d="M11.36,98.26C6.1,67.49,26.05,40.06,57.87,34.61c25.87-4.43,49.38,7.49,59.92,28.81a5.6,5.6,0,0,1-4.1,8L97.38,74.18a5.54,5.54,0,0,1-5-1.62C86,65.67,75.09,62.24,63,64.31,45.68,67.27,34.44,80,36.82,93.9S54,116.07,71.31,113.12c12.13-2.08,21.24-8.93,25-17.58a5.48,5.48,0,0,1,4.13-3.17l16.31-2.79a5.59,5.59,0,0,1,6.52,6.15c-2.85,23.61-21.07,42.66-46.93,47.09C44.56,148.27,16.63,129,11.36,98.26Z"/><path class="cls-2" d="M214.3,220.55,226.5,248c-22,12-48.09,18.48-75.36,18.48-34.86,0-67.78-10.57-92.7-29.77C32.35,216.63,18,189.56,18,160.5H48c0,41.91,46.28,76,103.18,76C174.91,236.5,196.84,230.55,214.3,220.55Z"/><path class="cls-2" d="M248,186.71l24.09,18.42a103.71,103.71,0,0,1-16.6,21.38l-19.57-22.74A71.42,71.42,0,0,0,248,186.71Z"/><path class="cls-2" d="M284.3,160.5a86.38,86.38,0,0,1-.78,11.63l-30.11-1.53a56.46,56.46,0,0,0,.91-10.1Z"/></svg>